<?xml version="1.0" standalone="no"?>
<!DOCTYPE svg PUBLIC "-//W3C//DTD SVG 20010904//EN"
 "http://www.w3.org/TR/2001/REC-SVG-20010904/DTD/svg10.dtd">
<svg version="1.0" xmlns="http://www.w3.org/2000/svg"
 width="35.000000pt" height="35.000000pt" viewBox="0 0 35.000000 35.000000"
 preserveAspectRatio="xMidYMid meet">

<g transform="translate(0.000000,35.000000) scale(0.100000,-0.100000)"
fill="#000000" stroke="none">
<path d="M148 339 c-10 -5 -18 -21 -18 -34 0 -22 -4 -25 -40 -25 -49 0 -54
-10 -64 -124 -3 -44 -11 -83 -17 -87 -7 -4 -2 -17 17 -38 l27 -31 121 0 c114
1 123 2 149 25 26 23 37 55 18 55 -5 0 -12 35 -16 78 -9 106 -16 122 -60 122
-27 0 -35 4 -35 18 0 22 -30 52 -51 52 -8 0 -22 -5 -31 -11z m51 -28 c12 -22
5 -31 -26 -31 -16 0 -23 6 -23 18 0 36 33 44 49 13z m-72 -71 c3 -11 9 -20 14
-20 5 0 9 9 9 20 0 15 7 20 25 20 15 0 25 -6 25 -14 0 -25 21 -29 27 -6 4 17
12 20 37 18 l31 -3 7 -105 c5 -69 3 -109 -4 -117 -16 -20 -234 -18 -245 2 -8
13 2 181 12 213 7 21 56 15 62 -8z"/>
</g>
</svg>
