<?xml version="1.0" standalone="no"?>
<!DOCTYPE svg PUBLIC "-//W3C//DTD SVG 20010904//EN"
 "http://www.w3.org/TR/2001/REC-SVG-20010904/DTD/svg10.dtd">
<svg version="1.0" xmlns="http://www.w3.org/2000/svg"
 width="179.000000pt" height="35.000000pt" viewBox="0 0 179.000000 35.000000"
 preserveAspectRatio="xMidYMid meet">

<g transform="translate(0.000000,35.000000) scale(0.100000,-0.100000)"
fill="#000000" stroke="none">
<path d="M77 298 c-9 -29 -27 -100 -42 -158 -14 -58 -28 -113 -31 -122 -4 -15
1 -18 29 -18 l35 0 27 118 c42 177 38 177 51 -15 l6 -93 32 0 c32 0 34 3 92
124 32 69 60 123 62 122 1 -2 -7 -56 -18 -120 -11 -65 -20 -122 -20 -127 0 -5
15 -9 34 -9 40 0 37 -7 61 175 9 66 18 132 21 148 6 27 5 27 -46 27 l-51 0
-49 -102 c-28 -57 -50 -109 -50 -115 0 -7 -4 -13 -10 -13 -5 0 -10 17 -10 38
0 22 -3 73 -6 115 l-7 77 -48 0 -48 0 -14 -52z"/>
<path d="M496 333 c-3 -10 -17 -81 -31 -158 -14 -77 -28 -148 -31 -158 -5 -16
3 -17 102 -15 l108 3 7 28 7 27 -70 0 -70 0 7 37 c4 21 9 41 11 45 3 5 32 8
65 8 44 0 59 4 59 14 0 8 3 21 6 30 5 14 -3 16 -55 16 -53 0 -61 2 -61 19 0
45 10 51 75 51 65 0 75 6 75 51 0 17 -8 19 -99 19 -86 0 -100 -2 -105 -17z"/>
<path d="M765 338 c-2 -7 -16 -76 -30 -153 -14 -77 -29 -150 -32 -162 -5 -23
-4 -23 101 -23 85 0 106 3 106 14 0 8 3 21 6 30 5 14 -4 16 -60 16 -49 0 -66
3 -66 14 0 7 11 68 25 136 14 68 25 127 25 131 0 14 -70 10 -75 -3z"/>
<path d="M1015 338 c-2 -7 -16 -76 -30 -153 -15 -77 -29 -150 -32 -163 l-5
-23 108 3 109 3 3 28 3 27 -65 0 c-71 0 -71 0 -60 59 6 31 7 31 70 31 l64 0 0
30 c0 30 0 30 -59 30 l-58 0 6 33 c7 32 7 32 73 35 68 3 77 10 78 60 0 17
-199 17 -205 0z"/>
<path d="M1311 341 c-22 -6 -26 -18 -52 -151 -16 -80 -31 -155 -34 -168 -5
-22 -3 -23 32 -20 38 3 38 3 50 62 14 73 24 84 57 62 19 -12 26 -25 26 -49 0
-63 9 -77 48 -77 l35 0 -6 60 c-4 34 -11 69 -17 80 -8 15 -3 25 25 53 39 39
44 70 19 106 -30 43 -113 62 -183 42z m100 -61 c45 -25 7 -90 -53 -90 -26 0
-27 2 -21 33 12 65 31 80 74 57z"/>
<path d="M1585 338 c-5 -15 -65 -319 -65 -330 0 -5 47 -8 104 -8 85 0 105 3
110 16 15 39 8 44 -59 44 -61 0 -65 1 -65 23 1 61 8 67 76 67 l64 0 0 30 c0
30 0 30 -59 30 l-58 0 6 33 c7 32 7 32 74 35 44 2 67 7 67 15 0 7 3 22 6 35 6
22 5 22 -95 22 -72 0 -103 -4 -106 -12z"/>
</g>
</svg>
