<?xml version="1.0" standalone="no"?>
<!DOCTYPE svg PUBLIC "-//W3C//DTD SVG 20010904//EN"
 "http://www.w3.org/TR/2001/REC-SVG-20010904/DTD/svg10.dtd">
<svg version="1.0" xmlns="http://www.w3.org/2000/svg"
 width="35.000000pt" height="35.000000pt" viewBox="0 0 35.000000 35.000000"
 preserveAspectRatio="xMidYMid meet">

<g transform="translate(0.000000,35.000000) scale(0.100000,-0.100000)"
fill="#000000" stroke="none">
<path d="M16 279 c-15 -18 -15 -23 -5 -30 17 -11 1 -10 164 -10 139 0 175 4
175 23 0 30 -36 37 -175 38 -131 0 -142 -1 -159 -21z"/>
<path d="M14 185 c-35 -27 3 -35 168 -35 160 0 192 8 153 37 -28 20 -294 19
-321 -2z"/>
<path d="M18 93 c-23 -6 -23 -16 0 -36 16 -14 42 -17 158 -17 100 1 144 4 157
14 23 18 21 32 -5 40 -26 7 -284 6 -310 -1z"/>
</g>
</svg>
